<?xml version="1.0" standalone="no"?>
<!DOCTYPE svg PUBLIC "-//W3C//DTD SVG 20010904//EN"
 "http://www.w3.org/TR/2001/REC-SVG-20010904/DTD/svg10.dtd">
<svg version="1.0" xmlns="http://www.w3.org/2000/svg"
 width="352.000000pt" height="243.200000pt" viewBox="0 0 352.000000 243.200000"
 preserveAspectRatio="xMidYMid meet">
<metadata>
Created by potrace 1.13, written by Peter Selinger 2001-2015
</metadata>
<g transform="translate(0.000000,243.200000) scale(0.080000,-0.080000)"
fill="#000000" stroke="none">
<path d="M3635 2894 c-49 -8 -135 -23 -190 -34 -55 -10 -183 -33 -285 -50
-102 -17 -235 -42 -295 -55 -61 -13 -162 -31 -225 -40 -63 -10 -117 -19 -120
-22 -9 -8 140 8 255 28 61 11 175 31 255 44 80 14 264 48 410 75 146 27 288
54 315 59 49 9 49 9 10 9 -22 0 -80 -6 -130 -14z"/>
<path d="M3725 2849 c-49 -5 -153 -20 -230 -33 -77 -14 -212 -34 -300 -45 -88
-11 -223 -32 -300 -47 -77 -14 -176 -32 -220 -39 -63 -10 -71 -13 -38 -14 23
0 120 12 215 29 95 16 247 39 338 50 91 11 215 30 275 41 61 12 180 31 265 44
158 23 156 29 -5 14z"/>
<path d="M3613 2751 c-56 -45 -226 -218 -202 -205 17 9 262 244 255 244 -2 0
-26 -18 -53 -39z"/>
<path d="M2072 2700 c-217 -30 -464 -137 -659 -285 -65 -48 -181 -173 -265
-284 -43 -57 -99 -170 -117 -237 l-11 -41 -58 -6 c-127 -11 -279 -113 -331
-220 -28 -57 -39 -160 -29 -273 8 -94 36 -163 80 -197 l29 -23 -27 -80 c-24
-69 -27 -94 -26 -194 0 -73 6 -135 17 -170 8 -30 19 -83 24 -118 6 -42 20 -81
43 -118 36 -60 99 -124 122 -124 13 0 13 -6 -1 -45 -18 -55 -12 -75 23 -75
l27 0 -7 -105 c-5 -72 -4 -105 3 -105 7 0 11 38 11 106 0 91 3 110 21 135 11
16 23 44 26 64 3 19 13 37 22 40 26 8 40 39 92 207 40 129 49 172 48 226 l-2
67 -8 -65 c-11 -89 -98 -393 -117 -411 -4 -4 -40 -10 -80 -14 l-73 -7 -34 37
c-54 56 -86 120 -100 193 -7 37 -20 101 -30 142 -27 121 -10 331 33 397 5 9
23 8 72 -4 76 -18 174 -13 240 11 25 10 52 20 60 22 11 4 21 -10 35 -51 23
-69 67 -133 120 -175 74 -59 396 -205 499 -226 39 -9 112 -26 161 -39 255 -67
480 -70 760 -10 190 41 272 42 375 7 31 -11 89 -25 130 -31 127 -20 120 -17
113 -54 -13 -71 -57 -196 -94 -267 l-39 -75 -65 -3 -65 -3 -2 188 c-1 186 -1
187 -9 73 -9 -135 0 -480 13 -480 4 0 8 20 8 45 l0 44 29 -17 c28 -15 32 -15
66 1 24 12 41 29 52 55 14 34 14 39 -1 65 -15 27 -15 31 9 71 38 64 83 180
102 261 l17 73 95 4 c76 3 107 9 152 30 75 34 236 154 286 214 137 159 116
423 -47 606 -40 45 -70 66 -138 99 -175 82 -176 83 -198 123 -12 21 -25 65
-29 99 -18 164 -125 393 -241 517 -23 25 -63 68 -89 97 -83 92 -415 243 -642
293 -104 22 -292 32 -381 20z m498 -275 c276 -29 520 -78 564 -112 49 -39 117
-126 162 -208 49 -91 114 -274 114 -323 0 -16 7 -52 15 -80 18 -58 47 -85 135
-121 144 -60 199 -103 280 -219 69 -101 92 -293 48 -407 -28 -73 -95 -147
-205 -227 -124 -89 -175 -107 -298 -108 -112 0 -248 20 -344 52 -96 31 -184
28 -406 -17 -284 -57 -445 -51 -770 26 -164 40 -228 62 -392 137 -218 100
-285 156 -335 280 -18 46 -22 77 -23 160 0 57 -3 93 -7 80 -3 -13 -6 -56 -7
-96 l-1 -73 -47 -21 c-100 -44 -307 -29 -368 28 -47 44 -68 108 -73 227 -6
150 12 218 80 292 66 73 175 128 262 133 144 9 264 -99 301 -272 11 -50 14
-55 14 -26 2 80 54 328 92 442 40 118 138 350 166 394 19 29 155 57 363 74
140 11 512 3 680 -15z m-1620 -2116 c0 -21 -10 -40 -31 -61 -37 -37 -55 -27
-45 26 8 41 29 66 57 66 15 0 19 -7 19 -31z m2215 -123 c19 -28 8 -66 -27 -90
-52 -37 -102 -7 -112 67 l-6 47 65 0 c57 0 66 -3 80 -24z"/>
<path d="M1649 2233 c-61 -10 -148 -117 -149 -181 0 -39 31 -92 63 -109 17 -8
62 -24 101 -35 78 -21 101 -37 219 -144 88 -80 200 -148 297 -181 123 -42 180
0 195 142 8 84 -1 95 -63 72 -66 -23 -87 -22 -136 7 -42 25 -315 304 -368 376
-16 21 -37 41 -46 44 -31 9 -87 14 -113 9z"/>
<path d="M3087 2122 c-8 -9 -29 -47 -46 -84 -40 -90 -96 -142 -212 -199 -126
-63 -140 -65 -197 -35 -67 35 -96 39 -122 18 -18 -15 -22 -29 -23 -94 -2 -92
18 -130 74 -138 49 -7 168 8 278 36 120 30 352 140 377 179 26 39 31 159 9
224 -32 97 -96 140 -138 93z"/>
<path d="M2450 1757 l5 -102 3 94 c1 52 -1 98 -5 102 -4 5 -6 -38 -3 -94z"/>
<path d="M1637 1665 c39 -7 76 -16 82 -19 10 -7 34 -11 214 -42 86 -14 135
-31 136 -46 1 -5 1 -12 1 -18 0 -14 57 -13 62 1 3 8 31 5 95 -10 50 -11 100
-21 111 -21 25 0 46 33 37 60 -10 31 -22 23 -17 -10 6 -40 -12 -45 -85 -26
-32 8 -92 22 -133 32 -41 9 -86 21 -100 26 -14 6 -61 16 -105 24 -151 25 -190
33 -239 49 -27 8 -68 15 -90 14 -34 -1 -29 -3 31 -14z"/>
<path d="M3027 1610 c-27 -5 -52 -12 -55 -16 -4 -4 7 -3 23 1 17 4 100 11 185
15 l155 7 -130 0 c-71 0 -152 -3 -178 -7z"/>
<path d="M2750 1544 c-21 -10 -67 -17 -116 -18 -45 0 -79 -5 -76 -10 3 -5 41
-6 86 -1 45 3 95 6 113 6 23 -1 35 4 43 19 13 25 0 26 -50 4z"/>
<path d="M2830 1194 c62 -53 102 -172 86 -258 -4 -19 -23 -59 -42 -88 -30 -44
-31 -49 -10 -29 14 13 35 44 47 68 41 86 13 236 -58 307 -14 14 -32 26 -40 26
-8 0 -1 -11 17 -26z"/>
<path d="M2960 1070 c0 -5 9 -10 21 -10 42 0 59 -18 59 -64 0 -46 -12 -57 -80
-70 -14 -3 -4 -3 22 -2 59 4 88 -14 88 -55 0 -37 -40 -60 -71 -41 -23 15 -29
15 -29 2 0 -17 43 -28 70 -18 31 12 40 25 40 61 l0 28 43 -26 c24 -14 50 -25
58 -25 8 0 -10 14 -38 30 -60 35 -79 58 -89 115 -4 22 -14 49 -23 60 -17 21
-71 33 -71 15z"/>
<path d="M3020 2535 c0 -2 22 -16 48 -29 56 -28 69 -42 74 -76 2 -18 17 -32
55 -53 77 -41 166 -162 208 -283 13 -36 32 -76 44 -88 26 -27 27 -43 4 -49
-14 -4 -14 -5 3 -6 13 -1 25 -10 29 -23 l7 -23 7 25 c11 40 34 36 49 -10 6
-22 12 -53 12 -70 0 -17 8 -47 17 -68 10 -20 20 -55 24 -77 4 -27 6 -12 6 50
0 60 -2 78 -7 55 -8 -41 -16 -27 -25 45 -18 149 -21 158 -56 187 -32 27 -56
37 -45 19 7 -11 -25 -24 -34 -14 -3 4 -14 33 -23 64 -16 52 -75 155 -128 222
-12 16 -46 40 -75 55 -45 22 -53 30 -56 56 -2 25 -13 37 -58 63 -49 30 -80 41
-80 28z m497 -517 c30 -28 29 -48 -2 -48 -17 0 -29 9 -40 30 -8 16 -15 31 -15
35 0 13 36 3 57 -17z"/>
<path d="M1320 2505 c-262 -32 -453 -60 -437 -63 20 -4 554 56 607 68 33 8 32
8 -15 8 -27 0 -97 -6 -155 -13z"/>
<path d="M758 2414 c-27 -13 -48 -27 -48 -29 0 -3 19 4 43 17 23 12 58 25 77
29 34 7 34 7 5 7 -16 1 -51 -10 -77 -24z"/>
<path d="M1099 2333 c-158 -107 -482 -367 -506 -406 -8 -15 -20 -23 167 124
80 63 209 163 288 223 128 97 151 116 138 116 -2 0 -41 -26 -87 -57z"/>
<path d="M605 2329 c-92 -52 -138 -85 -75 -54 77 39 184 105 168 105 -2 0 -43
-23 -93 -51z"/>
<path d="M1240 2320 c-25 -22 -52 -39 -61 -40 -9 0 -24 -9 -34 -20 -10 -11
-25 -22 -35 -25 -11 -4 -19 -19 -23 -45 -3 -22 -17 -54 -31 -71 -14 -17 -29
-42 -32 -55 -4 -14 -17 -30 -30 -34 -20 -8 -24 -16 -24 -55 0 -25 5 -45 10
-45 6 0 10 18 10 40 0 30 4 40 16 40 8 0 24 19 34 43 11 24 28 54 38 68 11 13
23 39 27 58 8 35 49 80 75 81 18 1 117 86 109 94 -2 3 -25 -12 -49 -34z"/>
<path d="M998 2179 c-10 -17 -18 -48 -18 -70 0 -28 -4 -39 -15 -39 -23 0 -47
-44 -39 -74 9 -39 26 -32 19 8 -6 30 -4 35 22 48 22 10 29 21 31 48 1 19 7 45
13 56 6 12 9 29 7 38 -2 11 -8 8 -20 -15z"/>
<path d="M3950 2174 c-152 -18 -392 -56 -387 -61 4 -3 519 62 557 71 36 9 -65
3 -170 -10z"/>
<path d="M3845 2100 c-34 -6 -35 -7 -10 -8 17 0 50 3 75 7 40 8 41 8 10 8 -19
0 -53 -3 -75 -7z"/>
<path d="M3950 2004 c-74 -7 -166 -17 -205 -22 -66 -9 -67 -10 -20 -10 28 -1
142 10 255 22 113 13 183 24 155 24 -27 0 -111 -6 -185 -14z"/>
<path d="M3631 1801 c-1 -102 2 -162 9 -166 12 -8 14 293 1 313 -4 7 -9 -57
-10 -147z"/>
<path d="M1320 619 c-12 -39 -19 -73 -17 -76 3 -2 13 22 22 54 9 32 18 66 21
76 3 9 3 17 0 17 -3 0 -15 -32 -26 -71z"/>
<path d="M1681 548 c0 -18 4 -42 9 -53 6 -15 9 -6 9 33 1 28 -3 52 -9 52 -5 0
-10 -15 -9 -32z"/>
<path d="M2780 567 c0 -18 26 -77 35 -77 5 0 -11 55 -24 77 -10 17 -10 17 -11
0z"/>
<path d="M3417 463 c-9 -126 -7 -251 3 -283 5 -14 8 60 9 178 1 111 -1 202 -2
202 -2 0 -7 -44 -10 -97z"/>
<path d="M3508 435 c-10 -164 -8 -341 2 -275 l7 45 3 -50 2 -50 8 55 c11 76
18 389 9 365 -4 -11 -9 -45 -10 -75 -2 -47 -4 -42 -8 30 l-6 85 -7 -130z"/>
<path d="M2471 493 c1 -44 3 -52 9 -33 12 36 12 90 0 90 -6 0 -10 -25 -9 -57z"/>
<path d="M850 449 c0 -14 7 -34 15 -45 15 -18 16 -17 9 16 -8 44 -24 63 -24
29z"/>
</g>
</svg>
